# xmcd
#
# Track frame offsets:
#	150
#	12535
#	31672
#	52672
#	65390
#	81650
#	94262
#	116282
#	132630
#	151905
#	169812
#	186042
#	205300
#
# Disc length: 2874 seconds
#
# Revision: 1
# Processed by: cddbd v1.5.1PL2 Copyright (c) Steve Scherf et al.
# Submitted via: audiograbber 1.83.01
#
DISCID=a90b380d
DTITLE=Michael Reno Harrell - Second Wind
DYEAR=1999
DGENRE=Country
TTITLE0=Good News
TTITLE1=Coast of Texas
TTITLE2=You Think You Know Somebody
TTITLE3=Sweet, Sweet, Sweet
TTITLE4=Southern Accent
TTITLE5=I Don't Care
TTITLE6=Del Rio
TTITLE7=Second Wind
TTITLE8=Some Old Things
TTITLE9=Nothin' You Can Do
TTITLE10=Uncle Bobby's Store
TTITLE11=Caroline
TTITLE12=Not a Miser
EXTD=
EXTT0=
EXTT1=
EXTT2=
EXTT3=
EXTT4=
EXTT5=
EXTT6=
EXTT7=
EXTT8=
EXTT9=
EXTT10=
EXTT11=
EXTT12=
PLAYORDER=
